<svg xmlns="http://www.w3.org/2000/svg" viewBox="0 0 168.8 29.96"><defs><style>.cls-1{fill:#0f766e;}</style></defs><g id="Capa_2" data-name="Capa 2"><g id="Capa_1-2" data-name="Capa 1"><path class="cls-1" d="M16.58,3.42A11.91,11.91,0,0,1,21.7,8.28a14.9,14.9,0,0,1,1.78,7.44,14.77,14.77,0,0,1-1.78,7.42,11.78,11.78,0,0,1-5.12,4.8,17.53,17.53,0,0,1-7.9,1.66H0V1.72H8.68A17.27,17.27,0,0,1,16.58,3.42Zm.34,20.32q2.83-2.86,2.84-8c0-3.47-1-6.17-2.86-8.12S12.25,4.68,8.68,4.68h-5V26.6h5Q14.08,26.6,16.92,23.74Z"/><path class="cls-1" d="M48.16,20H30.64a6.89,6.89,0,0,0,7.12,6.88,6.76,6.76,0,0,0,3.94-1.1,5.83,5.83,0,0,0,2.22-2.94h3.92A9.43,9.43,0,0,1,44.32,28a10.63,10.63,0,0,1-6.56,2,11.11,11.11,0,0,1-5.58-1.4,9.87,9.87,0,0,1-3.86-4,12.37,12.37,0,0,1-1.4-6,12.48,12.48,0,0,1,1.36-6A9.55,9.55,0,0,1,32.1,8.7a11.38,11.38,0,0,1,5.66-1.38,11,11,0,0,1,5.52,1.36A9.44,9.44,0,0,1,47,12.42a11,11,0,0,1,1.3,5.38A21.42,21.42,0,0,1,48.16,20ZM43.6,13.46a6,6,0,0,0-2.5-2.28,7.79,7.79,0,0,0-3.5-.78,6.76,6.76,0,0,0-4.7,1.76A7.19,7.19,0,0,0,30.68,17H44.52A6.74,6.74,0,0,0,43.6,13.46Z"/><path class="cls-1" d="M61.24,26.24,68,7.68h3.88L63.32,29.6H59.08L50.48,7.68H54.4Z"/><path class="cls-1" d="M92.52,1.52V20.64A9.06,9.06,0,0,1,90,27.48a9.34,9.34,0,0,1-6.74,2.4,10,10,0,0,1-7.12-2.52q-2.68-2.52-2.68-7.16h6.8A4.2,4.2,0,0,0,81,22.86a2.5,2.5,0,0,0,2.08.9A2.41,2.41,0,0,0,85,23a3.51,3.51,0,0,0,.68-2.32V1.52Z"/><path class="cls-1" d="M102.3,28.52a10.23,10.23,0,0,1-4.12-4,11.94,11.94,0,0,1-1.5-6.08,11.81,11.81,0,0,1,1.52-6.06,10.25,10.25,0,0,1,4.16-4,13.22,13.22,0,0,1,11.84,0,10.31,10.31,0,0,1,4.16,4,11.91,11.91,0,0,1,1.52,6.06,11.82,11.82,0,0,1-1.54,6.06,10.41,10.41,0,0,1-4.2,4,12.63,12.63,0,0,1-5.94,1.4A12.33,12.33,0,0,1,102.3,28.52Zm9.24-6a5.72,5.72,0,0,0,1.38-4.12,5.84,5.84,0,0,0-1.34-4.12,4.55,4.55,0,0,0-6.62,0,5.88,5.88,0,0,0-1.32,4.14,5.92,5.92,0,0,0,1.3,4.12A4.19,4.19,0,0,0,108.2,24,4.47,4.47,0,0,0,111.54,22.56Z"/><path class="cls-1" d="M133.12,7.92a8.61,8.61,0,0,1,4.12-1,9.29,9.29,0,0,1,5,1.4,9.74,9.74,0,0,1,3.54,4,13.43,13.43,0,0,1,1.3,6,13.58,13.58,0,0,1-1.3,6.06,9.86,9.86,0,0,1-3.54,4,9.13,9.13,0,0,1-5,1.42,8.55,8.55,0,0,1-4.12-.94,7.2,7.2,0,0,1-2.76-2.5V29.6h-6.84V0h6.84V10.44A7,7,0,0,1,133.12,7.92Zm5.58,6.46a4.72,4.72,0,0,0-3.5-1.46,4.59,4.59,0,0,0-3.46,1.48,5.58,5.58,0,0,0-1.42,4,5.58,5.58,0,0,0,1.42,4A4.59,4.59,0,0,0,135.2,24a4.65,4.65,0,0,0,3.48-1.5,5.61,5.61,0,0,0,1.44-4.06A5.54,5.54,0,0,0,138.7,14.38Z"/><path class="cls-1" d="M154.56,28.92a8.91,8.91,0,0,1-3.6-2.74,7.16,7.16,0,0,1-1.48-3.9h6.76a2.6,2.6,0,0,0,1.08,1.88,3.81,3.81,0,0,0,2.36.72,3.41,3.41,0,0,0,2-.5,1.55,1.55,0,0,0,.7-1.3,1.51,1.51,0,0,0-1-1.42,19.75,19.75,0,0,0-3.24-1,30.11,30.11,0,0,1-4-1.18,6.87,6.87,0,0,1-2.76-2,5.3,5.3,0,0,1-1.16-3.62,6.11,6.11,0,0,1,1.06-3.5,7.06,7.06,0,0,1,3.12-2.5,12,12,0,0,1,4.9-.92A9.82,9.82,0,0,1,165.9,9a8.12,8.12,0,0,1,2.78,5.52h-6.32a2.75,2.75,0,0,0-1-1.84,3.58,3.58,0,0,0-2.26-.68,3.09,3.09,0,0,0-1.84.46,1.47,1.47,0,0,0-.64,1.26,1.54,1.54,0,0,0,1,1.44,16.34,16.34,0,0,0,3.18,1,36.36,36.36,0,0,1,4,1.26,7,7,0,0,1,2.74,2,5.71,5.71,0,0,1,1.22,3.7,5.9,5.9,0,0,1-1.1,3.5A7.33,7.33,0,0,1,164.54,29a12.06,12.06,0,0,1-4.78.88A12.76,12.76,0,0,1,154.56,28.92Z"/></g></g></svg>